<?xml version="1.0" encoding="utf-8"?>
<!-- Generator: Adobe Illustrator 26.1.0, SVG Export Plug-In . SVG Version: 6.00 Build 0)  -->
<svg version="1.1" id="Layer_1" xmlns="http://www.w3.org/2000/svg" xmlns:xlink="http://www.w3.org/1999/xlink" x="0px" y="0px"
	 viewBox="0 0 512 512" style="enable-background:new 0 0 512 512;" xml:space="preserve">
<style type="text/css">
	.st0{fill-rule:evenodd;clip-rule:evenodd;}
</style>
<g>
	<path class="st0" d="M289.9,229.28c5.22,1.08,9.85,2.76,15.16,4.13c14.67,3.74,29.93,4.82,45.29,4.53l1.48,1.28
		c0.89,5.22,3.84,10.04,8.66,12.5c2.36,1.28,5.02,1.77,7.68,1.67c7.68,1.18,16.15-0.2,21.46-6.5c2.86-3.35,4.13-7.48,4.23-11.91l0,0
		l0,0l0,0l0,0v-0.1l0,0l0,0l0,0v-0.1l0,0l0,0l0,0l0,0l0,0v-0.1l0,0l0,0l0,0l0,0l0,0l0,0l0,0l0,0v-0.1l0,0l0,0l0,0l0,0l0,0l0,0l0,0
		l0,0l0,0v-0.1l0,0l0,0l0,0l0,0l0,0l0,0l0,0l0,0v-0.1l0,0l0,0l0,0l0,0l0,0l0,0c12.21-1.48,24.42-3.15,36.23-4.33
		c0,0.89,0.1,1.77,0.2,2.66c0,0.59,0.1,1.08,0.1,1.58c0.1,1.08,0.2,2.17,0.2,3.25c0,0.3,0.1,0.59,0.1,0.89c0,1.28,0.1,2.56,0.1,3.94
		v0.2c0.1,1.48,0.1,2.95,0.1,4.43c0,1.48,0,2.95-0.1,4.43v0.1c0,1.48-0.1,2.86-0.1,4.33l-0.1,0.2c0,1.38-0.1,2.76-0.2,4.13v0.39
		c-0.1,1.28-0.3,2.56-0.39,3.84c0,0.3,0,0.49-0.1,0.69c-0.1,1.18-0.2,2.36-0.39,3.54c0,0.3-0.1,0.69-0.1,0.98
		c-0.2,1.08-0.3,2.17-0.49,3.15c0,0.49-0.1,0.98-0.2,1.38c-0.1,0.98-0.3,1.87-0.39,2.76c-0.1,0.59-0.3,1.18-0.39,1.77
		c-0.1,0.79-0.2,1.58-0.39,2.26c-0.2,0.79-0.3,1.48-0.49,2.26c-0.1,0.59-0.2,1.18-0.39,1.77c-0.2,0.89-0.39,1.77-0.59,2.66
		c-0.1,0.39-0.2,0.79-0.3,1.18c-0.3,1.18-0.49,2.26-0.79,3.35c-0.1,0.2-0.2,0.49-0.3,0.69l0,0c-0.3,1.28-0.69,2.46-0.98,3.74
		c-8.17,27.47-22.94,52.08-42.43,72.07c-1.67-5.02-3.74-9.85-6.2-14.57l-0.2-0.3l-0.1-0.2c-1.67-2.26-3.35-4.53-5.12-6.69
		c-2.76-3.35-5.61-6.69-8.17-10.14c-1.48-1.87-3.74-4.92-4.43-7.19l-1.08-3.45c0.1-5.32-0.3-10.63-1.18-15.65
		c-0.89-5.12-3.25-15.75-10.24-15.36c-2.17,0.2-3.84,1.38-5.02,3.15l-0.39,0.59l-0.2,0.69c-0.79,2.66-5.12,11.22-7.29,14.08
		c-2.76-2.26-5.12-4.82-7.09-7.68l-0.3-0.39l-0.39-0.39c-1.38-1.08-3.15-1.77-5.02-1.08c-2.76,0.98-3.25,4.04-3.25,6.69v0.1v0.2
		c0.3,2.95,0.59,5.91,0.89,8.86c-0.3,0.2-0.49,0.49-0.79,0.69c-2.86,2.86-4.82,6.3-6.69,9.75l-0.1,0.3l-0.1,0.3
		c-0.69,1.87-2.56,6.6-3.74,8.27c-1.67,1.38-3.64,2.56-5.32,3.84c-3.84,2.86-8.96,7.09-7.58,12.4c0.69,4.23,3.25,8.17,6.2,11.22
		c2.76,3.05,8.37,7.68,13.09,8.76c2.07,0.89,4.73,0.1,6.99-0.3c1.18-0.2,2.46-0.39,3.64-0.59c-5.32,8.96-14.28,19.99-23.83,20.87
		c-7.09,0.2-13.88,1.77-20.38,4.53c5.12-12.11,8.66-25.2,7.78-38.4c-0.3-4.53-1.08-9.06-2.46-13.39l-0.1-0.39l-0.1-0.3
		c-5.91-11.52-4.73-22.55,1.77-33.47l2.56-4.33l0.69-0.3c4.53-2.46,9.35-4.33,14.28-5.91h0.1h0.1
		c14.18-5.12,16.84-16.34,11.62-29.63l-0.2-0.49v-0.59c0.1-3.54-0.59-7.29-3.45-9.55c-3.64-2.95-8.57-2.07-12.6-0.59l-0.2,0.1h-0.3
		c-4.23,0.69-10.04,1.08-13.88-1.18l-0.1-0.1l-0.1-0.1c-6.6-5.02-13.88-7.68-22.25-7.19c-12.31,0.79-23.92,8.47-32.78,16.54l0,0
		h-0.1c-2.17,1.87-3.64,4.04-4.53,6.79c-1.08,3.05-1.28,6.4-1.38,9.55c0,3.74,0.2,7.48,0.1,11.22c0.59,4.63-0.69,10.04-2.56,14.28
		c-2.17,4.43-5.22,8.07-9.06,10.73c-4.04-8.17-9.94-14.57-21.07-17.33c5.32-3.25,20.67-18.41,22.05-26.38
		c-5.12,6.4-18.31,21.66-25.99,24.71c-11.03,1.67-22.84,1.77-34.56,0c-4.92-0.69-6.99-1.18-8.27-1.18h-0.1l0,0
		c-1.87,0.1-2.46,1.08-7.88,3.84c-4.33,2.26-10.73,6.01-15.85,3.05c-45.19-26.68-15.46-33.28,6.99-53.56
		c19-17.23,12.5-23.23,16.15-27.96c4.04-7.09,8.17-12.11,12.21-15.06c-9.85-9.55-19.3-22.74-19.99-36.43
		c8.86,9.75,21.66,17.03,33.08,23.63c3.74,2.17,5.12,3.94,11.62-1.67c-0.89-1.87-2.76-3.54-4.04-6.01
		c-3.84-7.19-5.71-16.34-5.02-24.81c1.08,1.18,1.28,2.26,1.87,3.74c2.46,6.01,6.4,11.22,11.42,15.26c1.97,1.58,4.13,3.25,6.69,4.63
		c2.95,1.67,13.29,6.2,16.93,5.51c4.23-0.89,9.35-6.89,13.49-7.97c2.07,2.07,5.12,7.19,5.91,10.73c1.38,6.79-2.46,8.27-5.51,10.83
		C232.89,212.15,270.8,225.24,289.9,229.28L289.9,229.28z"/>
	<path class="st0" d="M293.54,225.15c1.67-8.17,3.25-16.54,4.92-20.77c0.39-1.18,0.79-2.46,1.18-3.84c0.39,0.49,0.89,1.08,1.38,1.87
		c7.78,11.12,20.87,17.43,34.36,16.44l20.87,17.92c0.1,0.3,0.1,0.69,0.2,0.98c0.98,6.89,5.81,11.32,11.91,10.83
		c12.21,2.07,20.48-3.64,20.67-13.59c0-2.86-0.59-6.1-1.97-9.65l-18.31-51.1c0.3-13.29-5.12-27.86-16.44-43.71
		c3.15,2.26,13.09,11.42,16.93,16.44c-1.77-11.22-12.6-19-17.03-22.84c3.25-6.1,5.51-12.5,6.01-18.71c0.2-3.35-0.1-6.69-1.28-9.94
		c-0.89,2.46-2.07,4.73-3.45,6.69c-5.22,7.78-13.78,11.81-25.99,11.12c-16.84-0.2-34.16,2.56-49.62,8.47
		c-30.42,11.81-65.86,38.59-89.39,60.45c-0.59,0.49-1.08,1.08-1.67,1.58c1.77,1.38,3.64,2.66,5.61,3.84
		c2.26,1.28,11.03,5.02,13.59,4.92c1.38-0.39,3.84-2.26,4.92-3.05c2.46-1.87,5.32-4.04,8.37-4.82l2.56-0.69l1.97,1.87
		c3.05,2.95,6.3,8.96,7.19,13.09c0.69,3.15,0.59,6.1-0.59,8.86c2.66,0.59,5.22,1.38,7.58,1.97c7.48,2.07,14.96,4.33,22.45,6.5
		c5.51,1.67,11.03,3.25,16.54,4.82c4.63,1.28,9.25,2.46,13.88,3.45C291.77,224.75,292.65,224.95,293.54,225.15L293.54,225.15z
		 M130.7,314.44c-4.63,1.77-9.65,2.36-14.08-0.3c-6.89-4.04-14.77-9.06-20.18-15.06c-3.64-4.04-6.5-9.16-5.61-14.87
		c1.08-6.99,7.29-12.31,12.6-16.34c6.5-5.02,13.29-9.55,19.3-14.96c4.43-4.04,10.04-9.65,12.11-15.36c0.49-1.38,0.79-2.76,0.98-4.13
		c0.2-1.67,0.3-3.35,0.89-5.02c0.39-0.79,0.79-1.67,1.28-2.46l0.1-0.1l0.1-0.2c1.97-3.25,4.04-6.4,6.4-9.35l2.66-3.15l-2.26-2.66
		c-19.89,10.24-40.46,17.43-61.73,21.66c-0.39,4.92-0.59,9.85-0.59,14.87c0,46.96,18.61,89.49,48.83,120.8l1.48-0.69
		c15.36-7.58,30.62-15.85,44.8-25.5c8.76-6.01,18.02-11.42,27.57-16.15l0.1-0.1h0.1c0.2-0.1,0.39-0.2,0.59-0.3
		c-3.84-7.68-9.06-12.31-17.52-14.37l-5.02-1.18l-0.89,0.1c-10.73,1.28-21.56,1.08-32.19-0.49c-1.67-0.3-3.35-0.49-5.02-0.79
		c-0.2,0-0.3-0.1-0.49-0.1l-1.87-0.3l-1.58,0.98c-0.1,0-0.2,0.1-0.39,0.2c-1.28,0.79-2.66,1.48-3.94,2.17
		C135.03,312.37,132.87,313.55,130.7,314.44L130.7,314.44z M330.75,109.56c5.02-0.1,9.35-0.98,13-2.56
		c0.59-3.15,0.79-6.6,0.49-10.63c-0.2-2.56-0.49-5.32-0.98-8.37c-0.79,2.26-1.58,4.33-2.56,6.4
		C338.14,100.01,334.89,105.04,330.75,109.56L330.75,109.56z M355.76,178.09c0.59-5.41-7.09-3.54-4.63-12.7
		C350.44,172.38,360.78,168.63,355.76,178.09L355.76,178.09z"/>
	<path class="st0" d="M271.19,404.72c8.96-18.71,13.59-37.41,8.07-55.33c-6.3-12.31-5.61-24.81,1.97-37.51
		c-4.73,1.67-8.07,6.1-10.04,13.29c-0.2-10.63,9.75-19.2,29.83-25.6c11.42-4.04,14.28-12.6,8.66-25.6
		c0.79-7.88-2.86-10.34-10.93-7.19c-7.88,1.38-13.78,0.69-17.72-1.97c-14.37-11.03-31.11-8.07-50.11,8.96
		c-12.4,10.73-4.53,30.52,16.64,34.75c15.16,2.17,18.51-4.63,6.4-16.05c-7.48-7.09-9.35-14.57-5.51-22.35
		c-0.3,7.09,0.98,15.16,6.01,19.89c11.72,10.34,11.72,21.36-2.46,21.27c-9.75,0.39-19.79-5.22-25.6-13.88
		c1.38,8.86-2.76,25.4-18.9,32.49c-9.75,4.82-18.71,10.14-26.98,15.75c-13,8.76-28.06,17.43-45.39,25.89
		c29.24,28.55,68.42,46.86,111.84,49.23c1.58,0.1,3.15,0.2,4.82,0.2C257.31,414.66,263.91,408.95,271.19,404.72L271.19,404.72z"/>
	<path class="st0" d="M370.82,356.38c-6.6-9.25-16.24-18.71-18.41-25.4c-0.39,2.07-1.18,4.73-2.26,8.07
		c3.54-24.32-2.95-43.71-6.6-38.1c-1.28,4.33-7.38,15.36-9.16,16.74c-0.79,1.08-1.48,2.56-1.77,4.53c-0.39-1.08-0.3-2.17,0.39-3.45
		c-12.11,1.18-15.56,5.91-19.69,13.88c-0.98,2.66-3.64,8.86-4.82,10.04c-3.45,2.86-12.9,7.97-11.62,11.81
		c1.18,8.07,12.8,16.44,16.34,16.34c0,1.77,21.95-7.97,25.89,8.07c-4.04-5.32-7.19-6.6-10.04-6.99
		c-7.68,15.16-19.2,27.37-30.52,28.35c-15.95,0.3-30.91,8.86-42.04,20.77c0.1,0,0.2,0,0.2,0c24.81,0,48.34-5.12,69.7-14.47
		c19-8.27,36.23-19.89,51-34.06C375.75,366.91,373.48,361.5,370.82,356.38L370.82,356.38z M319.24,310.7
		c0.39,4.33,0.69,7.68,1.08,10.14c3.84-1.58,7.58-2.56,11.32-2.66c-4.04-2.86-7.48-6.2-10.14-10.14
		C320.02,306.76,319.24,307.65,319.24,310.7L319.24,310.7z"/>
	<path class="st0" d="M381.85,124.43c-2.46-2.46-6.5-2.46-9.06,0c-2.46,2.46-2.46,6.5,0,8.96c2.46,2.46,6.5,2.46,9.06,0
		C384.31,130.93,384.31,126.89,381.85,124.43L381.85,124.43z M119.38,148.35c1.87,1.48,4.63,1.08,6.01-0.79
		c1.48-1.77,1.18-4.53-0.69-5.91c-1.87-1.48-4.63-1.08-6.01,0.79C117.21,144.32,117.51,146.98,119.38,148.35L119.38,148.35z
		 M107.66,166.76c1.97,1.18,4.63,0.49,5.81-1.48c1.18-2.07,0.49-4.63-1.58-5.81c-1.97-1.18-4.63-0.49-5.81,1.48
		C104.91,163.02,105.6,165.58,107.66,166.76L107.66,166.76z M98.11,187.04c2.17,0.89,4.73-0.2,5.61-2.26
		c0.89-2.17-0.1-4.73-2.26-5.61c-2.17-0.89-4.73,0.2-5.61,2.36C94.96,183.6,96.05,186.16,98.11,187.04L98.11,187.04z M91.62,207.82
		c2.26,0.59,4.63-0.69,5.22-2.95c0.59-2.26-0.79-4.63-3.05-5.22c-2.26-0.59-4.63,0.79-5.22,2.95
		C87.97,204.86,89.35,207.23,91.62,207.82L91.62,207.82z M388.35,147.96c1.48,1.77,4.13,2.17,6.01,0.79
		c1.87-1.48,2.26-4.13,0.79-6.01c-1.38-1.87-4.13-2.17-6.01-0.79C387.26,143.43,386.97,146.09,388.35,147.96L388.35,147.96z
		 M400.56,166.07c1.18,1.97,3.74,2.66,5.81,1.48c2.07-1.08,2.76-3.74,1.58-5.71c-1.18-2.07-3.84-2.76-5.81-1.58
		C400.06,161.35,399.37,164.01,400.56,166.07L400.56,166.07z M409.91,185.08c0.98,2.17,3.45,3.25,5.61,2.36
		c2.17-0.89,3.25-3.45,2.36-5.61c-0.89-2.07-3.45-3.15-5.61-2.26C410.11,180.45,409.02,183.01,409.91,185.08L409.91,185.08z
		 M420.05,200.53c-2.26,0.59-3.64,2.95-3.05,5.22c0.59,2.17,2.95,3.54,5.22,2.95c2.26-0.59,3.64-2.95,3.05-5.12
		C424.68,201.32,422.21,199.94,420.05,200.53L420.05,200.53z M132.38,132.7c2.46,2.56,6.5,2.56,9.06,0.1c2.46-2.46,2.46-6.5,0-8.96
		c-2.46-2.56-6.5-2.56-9.06-0.1C129.91,126.2,129.91,130.24,132.38,132.7L132.38,132.7z M149.6,108.87
		c-2.86,2.17-3.35,6.1-1.18,8.86c2.07,2.86,6.1,3.35,8.96,1.28c2.76-2.17,3.25-6.2,1.18-8.96
		C156.4,107.3,152.36,106.81,149.6,108.87L149.6,108.87z M169,96.08c-3.05,1.77-4.13,5.61-2.36,8.66c1.77,3.05,5.71,4.04,8.76,2.36
		c3.05-1.77,4.13-5.71,2.36-8.66C175.99,95.39,172.05,94.3,169,96.08L169,96.08z M189.48,86.13c-3.25,1.28-4.82,5.02-3.45,8.27
		c1.28,3.15,5.12,4.73,8.37,3.45c3.15-1.38,4.73-5.12,3.45-8.27C196.47,86.33,192.73,84.75,189.48,86.13L189.48,86.13z
		 M211.63,78.65c-3.45,0.89-5.51,4.43-4.63,7.78c0.98,3.35,4.53,5.41,7.88,4.53c3.35-0.89,5.41-4.43,4.53-7.78
		S214.98,77.76,211.63,78.65L211.63,78.65z M233.98,74.32c-3.54,0.49-6.01,3.64-5.51,7.09c0.39,3.45,3.64,5.91,7.19,5.51
		c3.45-0.49,5.91-3.64,5.51-7.09C240.67,76.29,237.42,73.83,233.98,74.32L233.98,74.32z M257.21,72.84c-3.45,0-6.4,2.86-6.4,6.3
		c0,3.54,2.86,6.4,6.4,6.4c3.54,0,6.4-2.86,6.4-6.3C263.61,75.7,260.76,72.84,257.21,72.84L257.21,72.84z M280.05,74.42
		c-3.54-0.49-6.79,1.97-7.19,5.41c-0.49,3.45,1.97,6.69,5.41,7.09c3.54,0.49,6.79-1.97,7.19-5.41
		C285.96,78.06,283.5,74.81,280.05,74.42L280.05,74.42z M302.89,78.95c-3.35-0.89-6.89,1.08-7.88,4.43
		c-0.89,3.35,1.18,6.89,4.53,7.78c3.45,0.98,6.89-1.08,7.88-4.43C308.31,83.38,306.24,79.83,302.89,78.95L302.89,78.95z
		 M324.45,86.23c-3.25-1.28-6.99,0.2-8.37,3.45c-1.28,3.25,0.3,6.99,3.45,8.27c3.25,1.38,7.09-0.2,8.37-3.45
		C329.28,91.35,327.7,87.61,324.45,86.23L324.45,86.23z"/>
</g>
<g>
	<g>
		<path d="M121.41,424.73c-1.62-1.23-2.82-2.64-3.62-4.24c-0.79-1.59-1.15-3.22-1.06-4.87s0.64-3.16,1.67-4.51
			c1.36-1.78,2.87-2.85,4.54-3.19c1.67-0.35,3.72,0.08,6.14,1.27c2.43,1.19,5.49,3.2,9.19,6.01l2.13,1.62l-1.69,2.23l-2.08-1.58
			c-2.21-1.68-4.12-3.03-5.72-4.04c-1.6-1.01-2.97-1.67-4.09-1.97c-1.12-0.31-2.08-0.29-2.88,0.04c-0.8,0.33-1.52,0.93-2.18,1.78
			c-1.13,1.49-1.53,3.08-1.21,4.78c0.32,1.7,1.36,3.22,3.11,4.55c1.42,1.08,2.92,1.69,4.51,1.83c1.59,0.14,3.15-0.15,4.68-0.86
			c1.53-0.71,2.87-1.83,4.03-3.35l4.29-5.65c1.68-2.21,2.46-4.16,2.33-5.85c-0.13-1.68-1.16-3.27-3.11-4.75
			c-1.45-1.1-3.01-1.95-4.67-2.54c-1.66-0.59-3.56-0.96-5.68-1.11l0.58-3.23c1.31,0.06,2.65,0.27,4.02,0.63
			c1.37,0.36,2.71,0.85,4.04,1.47c1.33,0.62,2.54,1.34,3.62,2.17c1.95,1.48,3.31,3.03,4.08,4.66c0.77,1.63,0.96,3.33,0.56,5.12
			c-0.39,1.79-1.38,3.72-2.96,5.8l-11.71,15.4l-2.87-2.18l4.4-5.79l0.5,0.38c-1.28,1.06-2.65,1.77-4.11,2.11
			c-1.46,0.35-2.94,0.34-4.44-0.02C124.24,426.49,122.79,425.79,121.41,424.73z"/>
		<path d="M144.54,440.24l13.86-26.8l3.32,1.71l-3.23,6.24l-0.61-0.31c1.88-1.83,4.01-2.85,6.39-3.07c2.38-0.22,4.73,0.27,7.05,1.47
			c2.14,1.1,3.72,2.4,4.75,3.89c1.03,1.49,1.49,3.19,1.39,5.1c-0.1,1.91-0.75,4.02-1.95,6.35l-8.74,16.91l-3.37-1.74l8.6-16.63
			c0.91-1.77,1.44-3.34,1.57-4.72c0.13-1.38-0.16-2.6-0.87-3.67s-1.84-2-3.38-2.8c-1.77-0.91-3.51-1.35-5.21-1.29
			c-1.71,0.05-3.27,0.57-4.7,1.56c-1.42,0.99-2.61,2.41-3.56,4.25l-7.91,15.31L144.54,440.24z"/>
		<path d="M179.17,456.45l10.38-28.33l3.56,1.31l-10.38,28.33L179.17,456.45z M191.71,420.43l1.65-4.5l4.79,1.75l-1.65,4.5
			L191.71,420.43z"/>
		<path d="M196.61,463.25l5.37-29.69l3.67,0.66l-1.25,6.92l-0.67-0.12c0.78-1.5,1.75-2.72,2.9-3.65c1.16-0.93,2.46-1.57,3.92-1.92
			c1.45-0.35,2.98-0.38,4.57-0.09c2.61,0.47,4.59,1.48,5.93,3.03c1.34,1.55,2.03,3.63,2.06,6.25l-0.92-0.17
			c1.11-2.16,2.73-3.76,4.88-4.81c2.15-1.04,4.51-1.33,7.08-0.87c2.2,0.4,3.95,1.16,5.25,2.28c1.29,1.12,2.15,2.59,2.58,4.42
			c0.43,1.83,0.41,4.02-0.06,6.6l-3.39,18.73l-3.73-0.68l3.33-18.43c0.54-2.98,0.41-5.25-0.38-6.8c-0.79-1.56-2.41-2.55-4.86-3
			c-1.71-0.31-3.3-0.17-4.75,0.4c-1.45,0.58-2.66,1.56-3.63,2.95c-0.97,1.38-1.64,3.12-2.02,5.2l-3.06,16.9l-3.73-0.68l3.33-18.43
			c0.54-2.98,0.41-5.25-0.38-6.8c-0.79-1.56-2.39-2.55-4.8-2.99c-1.76-0.32-3.35-0.18-4.78,0.4c-1.43,0.58-2.64,1.57-3.63,2.95
			c-0.99,1.38-1.67,3.11-2.05,5.19l-3.06,16.9L196.61,463.25z"/>
		<path d="M266.63,470.88c-2.82,0.12-5.29-0.42-7.42-1.62c-2.13-1.2-3.81-2.93-5.04-5.21c-1.24-2.27-1.92-5-2.06-8.2
			c-0.13-3.15,0.32-5.92,1.36-8.31c1.04-2.39,2.57-4.27,4.59-5.64c2.02-1.37,4.44-2.12,7.25-2.23c2.86-0.12,5.35,0.42,7.48,1.62
			c2.12,1.2,3.81,2.94,5.04,5.24c1.24,2.29,1.92,5.02,2.05,8.16c0.13,3.15-0.32,5.92-1.36,8.31c-1.04,2.39-2.57,4.27-4.59,5.64
			C271.93,470.01,269.49,470.76,266.63,470.88z M266.56,467.7c3.07-0.13,5.46-1.31,7.17-3.54c1.71-2.23,2.49-5.33,2.32-9.31
			c-0.17-3.94-1.19-6.94-3.09-9.02c-1.89-2.08-4.37-3.05-7.44-2.93c-3.07,0.13-5.47,1.31-7.2,3.54c-1.73,2.23-2.52,5.31-2.35,9.25
			c0.17,3.98,1.21,7.01,3.12,9.08C261,466.86,263.49,467.83,266.56,467.7z"/>
		<path d="M304.74,465.98c-2.63,0.59-5.07,0.49-7.31-0.3c-2.24-0.79-4.15-2.21-5.74-4.26c-1.59-2.04-2.73-4.63-3.43-7.74
			c-0.7-3.12-0.78-5.92-0.24-8.43c0.54-2.5,1.65-4.6,3.34-6.3c1.68-1.69,3.86-2.84,6.53-3.44c2.75-0.62,5.26-0.44,7.52,0.54
			c2.26,0.98,3.98,2.59,5.17,4.83l-0.67,0.15l-4.64-20.64l3.7-0.83l9.61,42.79l-3.64,0.82l-1.65-7.34l0.61-0.14
			c-0.11,2.53-0.98,4.73-2.6,6.58C309.68,464.13,307.49,465.36,304.74,465.98z M304.53,462.77c3.03-0.68,5.2-2.27,6.48-4.77
			c1.29-2.5,1.49-5.69,0.62-9.58c-0.86-3.84-2.41-6.62-4.65-8.33c-2.23-1.71-4.87-2.22-7.9-1.54c-2.95,0.66-5.08,2.25-6.39,4.75
			c-1.31,2.5-1.53,5.68-0.67,9.52c0.87,3.88,2.44,6.68,4.69,8.38C298.97,462.92,301.57,463.44,304.53,462.77z"/>
		<path d="M344.94,453.08c-2.87,1.21-5.57,1.67-8.12,1.4s-4.83-1.25-6.84-2.93c-2.01-1.67-3.63-3.98-4.88-6.92
			c-1.22-2.9-1.74-5.67-1.54-8.3c0.2-2.63,1.02-4.96,2.48-7.02c1.45-2.05,3.46-3.62,6.02-4.7c2.48-1.05,4.82-1.39,7.02-1.03
			c2.2,0.36,4.19,1.34,5.97,2.95c1.78,1.61,3.27,3.83,4.46,6.66l0.68,1.61l-22.3,9.4l-1.09-2.58l20.12-8.48l-0.6,1.13
			c-1.38-3.29-3.19-5.55-5.43-6.79c-2.23-1.24-4.76-1.27-7.59-0.08c-2.1,0.89-3.67,2.12-4.72,3.71c-1.04,1.59-1.57,3.38-1.58,5.39
			c-0.01,2.01,0.45,4.12,1.39,6.33l0.12,0.29c1.03,2.45,2.3,4.36,3.8,5.73c1.5,1.37,3.22,2.17,5.16,2.38
			c1.94,0.22,3.98-0.12,6.12-1.02c1.72-0.72,3.22-1.67,4.51-2.84c1.28-1.17,2.39-2.69,3.31-4.57l2.49,2.06
			c-0.74,1.66-1.92,3.24-3.54,4.73C348.73,451.08,346.92,452.24,344.94,453.08z"/>
		<path d="M373.36,438.37c-2.44,1.42-4.75,1.77-6.93,1.03c-2.19-0.74-4.08-2.49-5.7-5.24l-17.33-29.64l3.28-1.92l17.11,29.27
			c0.8,1.36,1.65,2.39,2.56,3.08c0.91,0.69,1.86,1.06,2.85,1.11c0.99,0.05,2-0.23,3.04-0.84c0.46-0.27,0.89-0.56,1.27-0.85
			c0.38-0.29,0.72-0.6,1.01-0.92l1.56,2.91c-0.47,0.42-0.93,0.8-1.36,1.12C374.28,437.8,373.83,438.1,373.36,438.37z"/>
		<path d="M391.6,425.81c-1.19,0.9-2.44,1.67-3.75,2.31c-1.31,0.64-2.63,1.09-3.96,1.37c-1.33,0.28-2.58,0.35-3.78,0.22l-0.61-3.06
			c1.33,0.03,2.59-0.09,3.8-0.35c1.21-0.27,2.35-0.66,3.44-1.18c1.09-0.52,2.11-1.14,3.07-1.87c2.01-1.53,3.26-3.08,3.74-4.64
			c0.48-1.56,0.23-2.99-0.75-4.27c-0.8-1.06-1.76-1.61-2.88-1.68c-1.12-0.06-2.57,0.3-4.37,1.1l-5.06,2.29
			c-2.43,1.12-4.54,1.54-6.32,1.25c-1.78-0.29-3.3-1.25-4.56-2.9c-1.08-1.42-1.65-2.94-1.71-4.56c-0.06-1.62,0.37-3.24,1.3-4.86
			c0.93-1.62,2.28-3.11,4.07-4.47c1.09-0.83,2.24-1.51,3.45-2.04c1.21-0.53,2.42-0.89,3.63-1.08c1.21-0.19,2.39-0.18,3.55,0.04
			l0.51,3.13c-1.1-0.15-2.21-0.14-3.31,0.02c-1.1,0.16-2.15,0.45-3.14,0.86c-0.99,0.41-1.93,0.96-2.82,1.64
			c-1.91,1.46-3.09,2.98-3.52,4.56c-0.44,1.58-0.14,3.05,0.89,4.4c0.78,1.02,1.73,1.6,2.85,1.74c1.12,0.14,2.5-0.16,4.14-0.88
			l5.06-2.29c2.52-1.14,4.68-1.62,6.48-1.45c1.8,0.17,3.32,1.08,4.58,2.73c1.08,1.42,1.64,2.94,1.67,4.55
			c0.03,1.62-0.44,3.23-1.41,4.83C394.9,422.86,393.48,424.38,391.6,425.81z"/>
	</g>
</g>
</svg>
